<svg id="Capa_1" enable-background="new 0 0 512 512" height="512" viewBox="0 0 512 512" width="512" xmlns="http://www.w3.org/2000/svg"><g><path d="m466.971 254c-10.523 0-20.206 3.638-27.881 9.71l-36.798-22.856 37.314-23.198c7.591 5.828 17.077 9.304 27.365 9.304 24.829 0 45.029-20.2 45.029-45.029s-20.2-45.028-45.029-45.028-45.028 20.199-45.028 45.028c0 3.65.447 7.195 1.271 10.595l-49.341 30.675-5.534-3.437v-67.277c0-40.795-15.904-79.131-44.783-107.945-28.798-28.734-67.028-44.542-107.695-44.542-.115 0-.236 0-.351 0-41.734.093-80.951 16.414-110.428 45.957-29.476 29.543-45.71 68.796-45.71 110.529v213.72c-35.386 19.764-59.372 57.591-59.372 100.921v40.873h461.205v-48.681c0-54.388-40.464-99.495-92.867-106.817v-101.427l54.728 33.993c-.727 3.206-1.124 6.537-1.124 9.96 0 24.829 20.2 45.029 45.028 45.029 24.829 0 45.029-20.2 45.029-45.029s-20.199-45.028-45.028-45.028zm0-87.101c8.289 0 15.033 6.743 15.033 15.032s-6.744 15.033-15.033 15.033-15.033-6.744-15.033-15.033 6.744-15.032 15.033-15.032zm-436.975 304.228c0-47.154 38.362-85.516 85.515-85.516h55.057c13.681 21.107 37.47 34.3 63.069 34.3 11.343 0 22.638-2.667 32.902-7.659 17.598 21.467 42.984 36.312 71.803 40.178v29.574h-214.313v-43.566h-29.995v43.566h-64.038zm113.222-244.096v-64.797h25.477c39.941 0 72.436 32.495 72.436 72.436v77.93c-4.516.669-9.098.974-13.712.919-46.429-.578-84.201-39.376-84.201-86.488zm83.827 116.482c4.721.059 9.434-.168 14.097-.677.219 15.514 3.607 30.274 9.537 43.668-5.431 2.226-11.232 3.411-17.042 3.411-15.367 0-29.643-7.9-37.856-20.541l10.324-28.051c6.834 1.357 13.834 2.102 20.94 2.19zm204.164 119.806v18.685h-62.871v-95.09c35.783 7.012 62.871 38.598 62.871 76.405zm-92.867-41.25c-38.195-7.07-67.215-40.632-67.215-80.844v-106.554c0-56.481-45.951-102.432-102.432-102.432h-55.473v94.793c0 30.644 11.751 59.621 33.087 81.592 9.268 9.544 19.878 17.272 31.4 23.01l-8.827 23.982h-53.372c-8.988 0-17.74 1.033-26.143 2.985v-202.115c0-69.592 56.617-126.335 126.209-126.49h.281c32.665 0 63.379 12.7 86.51 35.78 23.198 23.145 35.974 53.94 35.974 86.711v48.646l-27.359-16.994-15.827 25.481 43.186 26.824v185.625zm128.629-108.008c-8.289 0-15.033-6.744-15.033-15.033s6.744-15.032 15.033-15.032 15.033 6.743 15.033 15.032-6.744 15.033-15.033 15.033z"/></g></svg>