<svg id="Capa_1" enable-background="new 0 0 512 512" height="512" viewBox="0 0 512 512" width="512" xmlns="http://www.w3.org/2000/svg"><g><ellipse cx="270.753" cy="167.569" rx="10.016" ry="10.016" transform="matrix(.994 -.114 .114 .994 -17.308 31.895)"/><path d="m446.326 265.647v-12.17c0-27.986-22.769-50.755-50.755-50.755-11.515 0-22.441 3.829-31.353 10.864l-30.138-14.868-20.713-14.12c-4.572-3.117-10.802-1.937-13.918 2.634s-1.937 10.802 2.634 13.918l13.019 8.875-12.252 17.972-102.223-69.687 12.252-17.972 15.402 10.5c4.569 3.115 10.801 1.936 13.918-2.634 3.116-4.571 1.937-10.802-2.634-13.918l-15.402-10.5 15.516-22.759c3.074-4.51 1.869-10.847-2.634-13.918l-117.674-80.222c-13.986-9.533-33.046-9.147-46.597 1.019-3.524 2.644-6.594 5.878-9.075 9.517l-31.999 46.939c-9.534 13.985-9.147 33.046 1.019 46.596 2.644 3.524 5.878 6.594 9.517 9.075l117.674 80.221c4.509 3.074 10.848 1.869 13.918-2.634l15.516-22.759 109.909 74.927s30.761 28.119 31.108 28.417c-17.02 18.124-26.395 42.118-26.395 67.615v156.163c0 2.657 1.055 5.204 2.933 7.083 1.879 1.878 4.426 2.933 7.083 2.933h163.191c5.532 0 10.016-4.484 10.016-10.016v-156.162c-.001-32.61-15.203-62.262-40.863-80.174zm-283.409-87.586-109.397-74.579c-9.016-6.147-11.423-18.806-5.268-27.835l31.999-46.939c6.145-9.013 18.807-11.423 27.836-5.268l109.398 74.579zm263.376 75.416v88.852c0 16.94-13.782 30.722-30.723 30.722-16.94 0-30.722-13.782-30.722-30.722v-56.69c8.181-2.387 15.35-7.535 20.226-14.688 6.074-8.91 7.964-19.997 5.184-30.417-1.48-5.548-4.211-10.591-7.888-14.808 4.073-1.944 8.559-2.972 13.2-2.972 16.941 0 30.723 13.783 30.723 30.723zm-107.643-13.094 13.743-20.16 29.488 14.547c4.457 2.159 7.746 6.142 9.023 10.927 1.276 4.786.408 9.877-2.381 13.969-2.79 4.092-7.212 6.761-12.133 7.321-4.921.561-9.83-1.045-13.504-4.438zm148.506 251.584h-143.159v-146.146c0-20.304 7.395-39.363 20.82-53.743v50.251c0 27.986 22.769 50.755 50.755 50.755s50.755-22.769 50.755-50.755v-50.237c13.125 14.138 20.83 33.466 20.83 53.729v146.146z"/><path d="m427 450.434h-62.853c-5.532 0-10.016 4.484-10.016 10.016s4.484 10.016 10.016 10.016h62.853c5.532 0 10.016-4.484 10.016-10.016s-4.485-10.016-10.016-10.016z"/></g></svg>